<?xml version="1.0" encoding="UTF-8"?>
<svg xmlns="http://www.w3.org/2000/svg" xmlns:xlink="http://www.w3.org/1999/xlink" width="425.197" height="425.197" viewBox="0 0 425.197 425.197">
<defs>
<clipPath id="clip-0">
<path clip-rule="nonzero" d="M 0 0 L 424.394531 0 L 424.394531 424.394531 L 0 424.394531 Z M 0 0 "/>
</clipPath>
<clipPath id="clip-1">
<path clip-rule="nonzero" d="M 345 133 L 424.394531 133 L 424.394531 181 L 345 181 Z M 345 133 "/>
</clipPath>
</defs>
<g clip-path="url(#clip-0)">
<path fill-rule="nonzero" fill="rgb(15.684509%, 15.684509%, 15.684509%)" fill-opacity="1" d="M 424.398438 212.195312 C 424.398438 95 329.394531 -0.00390625 212.195312 -0.00390625 C 95 -0.00390625 -0.00390625 95 -0.00390625 212.195312 C -0.00390625 329.394531 95 424.398438 212.195312 424.398438 C 329.394531 424.398438 424.398438 329.394531 424.398438 212.195312 Z M 424.398438 212.195312 "/>
</g>
<path fill="none" stroke-width="1.59404" stroke-linecap="butt" stroke-linejoin="miter" stroke="rgb(100%, 100%, 100%)" stroke-opacity="0.5" stroke-miterlimit="10" d="M 1.770813 -70.867678 C 1.770813 -69.889286 0.980272 -69.094831 0.00187945 -69.094831 C -0.980427 -69.094831 -1.770968 -69.889286 -1.770968 -70.867678 C -1.770968 -71.846071 -0.980427 -72.640526 0.00187945 -72.640526 C 0.980272 -72.640526 1.770813 -71.846071 1.770813 -70.867678 Z M 1.770813 -70.867678 " transform="matrix(0.998129, 0, 0, -0.998129, 212.197343, 254.635974)"/>
<path fill="none" stroke-width="1.59404" stroke-linecap="butt" stroke-linejoin="miter" stroke="rgb(100%, 100%, 100%)" stroke-opacity="0.5" stroke-miterlimit="10" d="M 0.00186173 21.258224 C 0.00186173 -21.258191 0.00186173 -21.258191 7.085396 -42.52031 " transform="matrix(0.998133, 0, 0, -0.998328, 212.19736, 254.62111)"/>
<path fill="none" stroke-width="1.59404" stroke-linecap="butt" stroke-linejoin="miter" stroke="rgb(100%, 100%, 100%)" stroke-opacity="0.5" stroke-miterlimit="10" d="M -35.432014 -56.692345 C 14.175103 -42.520969 14.175103 -42.520969 35.433619 -49.608614 " transform="matrix(0.998313, 0, 0, -0.998106, 212.212089, 254.637703)"/>
<path fill="none" stroke-width="1.59404" stroke-linecap="butt" stroke-linejoin="miter" stroke="rgb(100%, 100%, 100%)" stroke-opacity="0.5" stroke-miterlimit="10" d="M -8.858848 63.780694 C 0.00132183 60.235 0.00132183 60.235 8.857578 63.780694 " transform="matrix(0.998147, 0, 0, -0.998129, 212.197899, 254.637954)"/>
<path fill="none" stroke-width="1.59404" stroke-linecap="butt" stroke-linejoin="miter" stroke="rgb(100%, 100%, 100%)" stroke-opacity="0.5" stroke-miterlimit="10" d="M -14.173746 49.605535 C 0.000945818 46.063754 0.000945818 46.063754 14.171724 49.605535 " transform="matrix(0.998148, 0, 0, -0.998129, 212.198275, 254.637747)"/>
<path fill="none" stroke-width="1.59404" stroke-linecap="butt" stroke-linejoin="miter" stroke="rgb(100%, 100%, 100%)" stroke-opacity="0.5" stroke-miterlimit="10" d="M -14.173433 106.301926 L -21.26088 134.647395 " transform="matrix(0.998133, 0, 0, -0.998148, 212.197759, 254.640193)"/>
<path fill="none" stroke-width="1.59404" stroke-linecap="butt" stroke-linejoin="miter" stroke="rgb(100%, 100%, 100%)" stroke-opacity="0.5" stroke-miterlimit="10" d="M -28.348413 113.385923 L -24.802718 120.473371 " transform="matrix(0.998129, 0, 0, -0.998133, 212.197731, 254.639131)"/>
<path fill="none" stroke-width="1.59404" stroke-linecap="butt" stroke-linejoin="miter" stroke="rgb(100%, 100%, 100%)" stroke-opacity="0.5" stroke-miterlimit="10" d="M -56.69178 113.386086 C -49.608582 120.473731 -49.608582 120.473731 -31.888846 127.561376 " transform="matrix(0.998181, 0, 0, -0.998106, 212.201928, 254.636144)"/>
<path fill="none" stroke-width="1.59404" stroke-linecap="butt" stroke-linejoin="miter" stroke="rgb(100%, 100%, 100%)" stroke-opacity="0.5" stroke-miterlimit="10" d="M 14.17312 106.301926 L 21.260567 134.647395 " transform="matrix(0.998133, 0, 0, -0.998148, 212.197084, 254.640193)"/>
<path fill="none" stroke-width="1.59404" stroke-linecap="butt" stroke-linejoin="miter" stroke="rgb(100%, 100%, 100%)" stroke-opacity="0.5" stroke-miterlimit="10" d="M 28.348276 113.385923 L 24.802581 120.473371 " transform="matrix(0.998129, 0, 0, -0.998133, 212.196937, 254.639131)"/>
<path fill="none" stroke-width="1.59404" stroke-linecap="butt" stroke-linejoin="miter" stroke="rgb(100%, 100%, 100%)" stroke-opacity="0.5" stroke-miterlimit="10" d="M 56.692202 113.386086 C 49.60509 120.473731 49.60509 120.473731 31.889268 127.561376 " transform="matrix(0.998181, 0, 0, -0.998106, 212.196089, 254.636144)"/>
<path fill="none" stroke-width="1.59404" stroke-linecap="butt" stroke-linejoin="miter" stroke="rgb(100%, 0%, 0%)" stroke-opacity="1" stroke-miterlimit="10" d="M -46.539112 47.8365 C -45.952078 48.854015 -46.848283 50.470298 -48.542854 51.448678 C -50.237424 52.427058 -52.088537 52.39575 -52.675571 51.378235 C -53.262605 50.36072 -52.3664 48.744436 -50.671829 47.766057 C -48.973345 46.787677 -47.126146 46.818985 -46.539112 47.8365 Z M -46.539112 47.8365 " transform="matrix(0.998133, 0, 0, -0.998143, 212.198302, 254.638271)"/>
<path fill="none" stroke-width="1.59404" stroke-linecap="butt" stroke-linejoin="miter" stroke="rgb(100%, 100%, 100%)" stroke-opacity="0.5" stroke-miterlimit="10" d="M -99.213772 92.127082 C -56.692088 49.605398 -56.692088 49.605398 -42.519497 35.432807 " transform="matrix(0.998296, 0, 0, -0.998296, 212.220472, 254.638047)"/>
<path fill="none" stroke-width="1.59404" stroke-linecap="butt" stroke-linejoin="miter" stroke="rgb(100%, 100%, 100%)" stroke-opacity="0.5" stroke-miterlimit="10" d="M -56.695094 95.66902 C -42.520156 99.214771 -42.520156 99.214771 -24.803441 106.302359 " transform="matrix(0.99813, 0, 0, -0.998114, 212.198477, 254.636994)"/>
<path fill="none" stroke-width="1.59404" stroke-linecap="butt" stroke-linejoin="miter" stroke="rgb(100%, 100%, 100%)" stroke-opacity="0.5" stroke-miterlimit="10" d="M -70.867419 92.1272 C -49.608533 85.039612 -49.608533 85.039612 -14.173144 81.497775 " transform="matrix(0.998296, 0, 0, -0.998114, 212.215396, 254.637012)"/>
<path fill="none" stroke-width="1.59404" stroke-linecap="butt" stroke-linejoin="miter" stroke="rgb(100%, 100%, 100%)" stroke-opacity="0.5" stroke-miterlimit="10" d="M -46.061754 46.063418 C -35.432508 37.207113 -35.432508 37.207113 -14.174015 40.748852 " transform="matrix(0.99813, 0, 0, -0.998141, 212.198297, 254.637957)"/>
<path fill="none" stroke-width="1.59404" stroke-linecap="butt" stroke-linejoin="miter" stroke="rgb(100%, 0%, 0%)" stroke-opacity="1" stroke-miterlimit="10" d="M 52.675269 51.378282 C 52.088236 52.3958 50.237123 52.427108 48.542552 51.448726 C 46.847982 50.470343 45.951777 48.854055 46.53881 47.836537 C 47.125844 46.819019 48.976957 46.787711 50.671528 47.766094 C 52.366098 48.744476 53.262303 50.360764 52.675269 51.378282 Z M 52.675269 51.378282 " transform="matrix(0.998133, 0, 0, -0.99814, 212.196531, 254.638173)"/>
<path fill="none" stroke-width="1.59404" stroke-linecap="butt" stroke-linejoin="miter" stroke="rgb(100%, 100%, 100%)" stroke-opacity="0.5" stroke-miterlimit="10" d="M 99.212317 92.127082 C 56.694546 49.605398 56.694546 49.605398 42.521955 35.432807 " transform="matrix(0.998296, 0, 0, -0.998296, 212.195042, 254.638047)"/>
<path fill="none" stroke-width="1.59404" stroke-linecap="butt" stroke-linejoin="miter" stroke="rgb(100%, 100%, 100%)" stroke-opacity="0.5" stroke-miterlimit="10" d="M 56.693999 95.66902 C 42.519061 99.214771 42.519061 99.214771 24.802346 106.302359 " transform="matrix(0.99813, 0, 0, -0.998114, 212.197148, 254.636994)"/>
<path fill="none" stroke-width="1.59404" stroke-linecap="butt" stroke-linejoin="miter" stroke="rgb(100%, 100%, 100%)" stroke-opacity="0.5" stroke-miterlimit="10" d="M 70.865946 92.1272 C 49.60706 85.039612 49.60706 85.039612 14.171671 81.497775 " transform="matrix(0.998296, 0, 0, -0.998114, 212.200137, 254.637012)"/>
<path fill="none" stroke-width="1.59404" stroke-linecap="butt" stroke-linejoin="miter" stroke="rgb(100%, 100%, 100%)" stroke-opacity="0.5" stroke-miterlimit="10" d="M 46.064593 46.063418 C 35.435346 37.207113 35.435346 37.207113 14.17294 40.748852 " transform="matrix(0.99813, 0, 0, -0.998141, 212.197307, 254.637957)"/>
<path fill="none" stroke-width="1.59404" stroke-linecap="butt" stroke-linejoin="miter" stroke="rgb(100%, 100%, 100%)" stroke-opacity="0.5" stroke-miterlimit="10" d="M -177.168008 85.039812 C -141.734557 70.868436 -106.301106 77.952167 -92.127726 85.039812 " transform="matrix(0.99824, 0, 0, -0.998106, 212.223409, 254.636534)"/>
<path fill="none" stroke-width="1.59404" stroke-linecap="butt" stroke-linejoin="miter" stroke="rgb(100%, 100%, 100%)" stroke-opacity="0.5" stroke-miterlimit="10" d="M -106.30137 120.473429 C -70.86598 127.560972 -70.86598 127.560972 -49.607094 106.302257 " transform="matrix(0.998296, 0, 0, -0.99812, 212.221772, 254.637573)"/>
<path fill="none" stroke-width="1.59404" stroke-linecap="butt" stroke-linejoin="miter" stroke="rgb(100%, 100%, 100%)" stroke-opacity="0.5" stroke-miterlimit="10" d="M -170.081192 127.561022 C -134.646419 134.648565 -134.646419 134.648565 -99.215559 113.385936 " transform="matrix(0.998313, 0, 0, -0.99812, 212.239604, 254.637623)"/>
<path fill="none" stroke-width="1.59404" stroke-linecap="butt" stroke-linejoin="miter" stroke="rgb(100%, 100%, 100%)" stroke-opacity="0.5" stroke-miterlimit="10" d="M -184.254011 106.302353 C -170.082119 109.84419 -170.082119 109.84419 -134.648476 99.214764 " transform="matrix(0.998345, 0, 0, -0.998114, 212.245946, 254.636988)"/>
<path fill="none" stroke-width="1.59404" stroke-linecap="butt" stroke-linejoin="miter" stroke="rgb(100%, 100%, 100%)" stroke-opacity="0.5" stroke-miterlimit="10" d="M -191.339288 99.214691 C -177.168421 95.668996 -177.168421 95.668996 -155.906252 99.214691 " transform="matrix(0.998142, 0, 0, -0.998129, 212.202453, 254.638484)"/>
<path fill="none" stroke-width="1.59404" stroke-linecap="butt" stroke-linejoin="miter" stroke="rgb(100%, 100%, 100%)" stroke-opacity="0.5" stroke-miterlimit="10" d="M -162.992916 155.905908 C -177.168001 141.735042 -177.168001 141.735042 -184.255544 120.472872 " transform="matrix(0.99812, 0, 0, -0.998142, 212.19822, 254.63961)"/>
<path fill="none" stroke-width="1.59404" stroke-linecap="butt" stroke-linejoin="miter" stroke="rgb(100%, 100%, 100%)" stroke-opacity="0.5" stroke-miterlimit="10" d="M 177.166996 85.039812 C 141.733545 70.868436 106.300094 77.952167 92.126714 85.039812 " transform="matrix(0.99824, 0, 0, -0.998106, 212.191664, 254.636534)"/>
<path fill="none" stroke-width="1.59404" stroke-linecap="butt" stroke-linejoin="miter" stroke="rgb(100%, 100%, 100%)" stroke-opacity="0.5" stroke-miterlimit="10" d="M 106.299871 120.473429 C 70.868395 127.560972 70.868395 127.560972 49.605596 106.302257 " transform="matrix(0.998296, 0, 0, -0.99812, 212.193786, 254.637573)"/>
<path fill="none" stroke-width="1.59404" stroke-linecap="butt" stroke-linejoin="miter" stroke="rgb(100%, 100%, 100%)" stroke-opacity="0.5" stroke-miterlimit="10" d="M 170.082754 127.561022 C 134.64798 134.648565 134.64798 134.648565 99.213207 113.385936 " transform="matrix(0.998313, 0, 0, -0.99812, 212.184619, 254.637623)"/>
<path fill="none" stroke-width="1.59404" stroke-linecap="butt" stroke-linejoin="miter" stroke="rgb(100%, 100%, 100%)" stroke-opacity="0.5" stroke-miterlimit="10" d="M 184.253731 106.302353 C 170.081839 109.84419 170.081839 109.84419 134.648196 99.214764 " transform="matrix(0.998345, 0, 0, -0.998114, 212.172302, 254.636988)"/>
<g clip-path="url(#clip-1)">
<path fill="none" stroke-width="1.59404" stroke-linecap="butt" stroke-linejoin="miter" stroke="rgb(100%, 100%, 100%)" stroke-opacity="0.5" stroke-miterlimit="10" d="M 191.341381 99.214691 C 177.166601 95.668996 177.166601 95.668996 155.908345 99.214691 " transform="matrix(0.998142, 0, 0, -0.998129, 212.193895, 254.638484)"/>
</g>
<path fill="none" stroke-width="1.59404" stroke-linecap="butt" stroke-linejoin="miter" stroke="rgb(100%, 100%, 100%)" stroke-opacity="0.5" stroke-miterlimit="10" d="M 162.992721 155.905908 C 177.167806 141.735042 177.167806 141.735042 184.255349 120.472872 " transform="matrix(0.99812, 0, 0, -0.998142, 212.196506, 254.63961)"/>
<path fill="none" stroke-width="1.59404" stroke-linecap="butt" stroke-linejoin="miter" stroke="rgb(100%, 100%, 100%)" stroke-opacity="0.5" stroke-miterlimit="10" d="M -99.212449 77.954516 C -85.041277 56.692479 -85.041277 56.692479 -77.953735 49.605133 " transform="matrix(0.99812, 0, 0, -0.998148, 212.197813, 254.638256)"/>
<path fill="none" stroke-width="1.59404" stroke-linecap="butt" stroke-linejoin="miter" stroke="rgb(100%, 100%, 100%)" stroke-opacity="0.5" stroke-miterlimit="10" d="M -77.953504 70.865347 C -77.953504 21.259219 -77.953504 21.259219 -63.782128 -67.323432 " transform="matrix(0.998106, 0, 0, -0.998097, 212.196463, 254.640634)"/>
<path fill="none" stroke-width="1.59404" stroke-linecap="butt" stroke-linejoin="miter" stroke="rgb(100%, 100%, 100%)" stroke-opacity="0.5" stroke-miterlimit="10" d="M -63.778534 42.521918 L -56.695 46.063699 " transform="matrix(0.998133, 0, 0, -0.998129, 212.198553, 254.637693)"/>
<path fill="none" stroke-width="1.59404" stroke-linecap="butt" stroke-linejoin="miter" stroke="rgb(100%, 100%, 100%)" stroke-opacity="0.5" stroke-miterlimit="10" d="M -67.324171 35.434337 L -56.694746 33.661478 " transform="matrix(0.998114, 0, 0, -0.998123, 212.197176, 254.637368)"/>
<path fill="none" stroke-width="1.59404" stroke-linecap="butt" stroke-linejoin="miter" stroke="rgb(100%, 100%, 100%)" stroke-opacity="0.5" stroke-miterlimit="10" d="M -70.865992 31.888544 L -65.551267 28.346763 " transform="matrix(0.998111, 0, 0, -0.998129, 212.197001, 254.63749)"/>
<path fill="none" stroke-width="1.59404" stroke-linecap="butt" stroke-linejoin="miter" stroke="rgb(100%, 100%, 100%)" stroke-opacity="0.5" stroke-miterlimit="10" d="M -63.779356 31.888452 C -46.063533 14.171552 -46.063533 14.171552 -38.976422 10.629738 " transform="matrix(0.998181, 0, 0, -0.99812, 212.202391, 254.637098)"/>
<path fill="none" stroke-width="1.59404" stroke-linecap="butt" stroke-linejoin="miter" stroke="rgb(100%, 100%, 100%)" stroke-opacity="0.5" stroke-miterlimit="10" d="M -69.09728 26.574615 C -56.695233 7.086252 -56.695233 7.086252 -49.607789 -0.000781779 " transform="matrix(0.998134, 0, 0, -0.998192, 212.198818, 254.635938)"/>
<path fill="none" stroke-width="1.59404" stroke-linecap="butt" stroke-linejoin="miter" stroke="rgb(100%, 100%, 100%)" stroke-opacity="0.5" stroke-miterlimit="10" d="M -56.694938 -3.545157 C -53.149256 -14.174667 -53.149256 -14.174667 -44.292879 -17.716533 " transform="matrix(0.998133, 0, 0, -0.998106, 212.198469, 254.63734)"/>
<path fill="none" stroke-width="1.59404" stroke-linecap="butt" stroke-linejoin="miter" stroke="rgb(100%, 100%, 100%)" stroke-opacity="0.5" stroke-miterlimit="10" d="M -60.236507 -21.258231 C -53.148862 -31.891655 -53.148862 -31.891655 -46.065131 -35.43352 " transform="matrix(0.998106, 0, 0, -0.998106, 212.19662, 254.637507)"/>
<path fill="none" stroke-width="1.59404" stroke-linecap="butt" stroke-linejoin="miter" stroke="rgb(100%, 100%, 100%)" stroke-opacity="0.5" stroke-miterlimit="10" d="M -63.782256 -31.891738 C -51.379856 -42.521163 -51.379856 -42.521163 -49.606966 -42.521163 " transform="matrix(0.998106, 0, 0, -0.998114, 212.19659, 254.637171)"/>
<path fill="none" stroke-width="1.59404" stroke-linecap="butt" stroke-linejoin="miter" stroke="rgb(100%, 100%, 100%)" stroke-opacity="0.5" stroke-miterlimit="10" d="M -63.778534 -42.521151 L -56.695 -53.150577 " transform="matrix(0.998133, 0, 0, -0.998114, 212.198553, 254.637182)"/>
<path fill="none" stroke-width="1.59404" stroke-linecap="butt" stroke-linejoin="miter" stroke="rgb(100%, 100%, 100%)" stroke-opacity="0.5" stroke-miterlimit="10" d="M -49.60755 24.805006 C -24.803642 19.490282 -24.803642 19.490282 -14.174514 21.259248 " transform="matrix(0.998142, 0, 0, -0.998111, 212.198953, 254.637067)"/>
<path fill="none" stroke-width="1.59404" stroke-linecap="butt" stroke-linejoin="miter" stroke="rgb(100%, 100%, 100%)" stroke-opacity="0.5" stroke-miterlimit="10" d="M -40.747972 -3.541511 C -28.346642 0.000270211 -28.346642 0.000270211 -14.172575 0.000270211 " transform="matrix(0.998192, 0, 0, -0.998129, 212.201636, 254.636988)"/>
<path fill="none" stroke-width="1.59404" stroke-linecap="butt" stroke-linejoin="miter" stroke="rgb(100%, 100%, 100%)" stroke-opacity="0.5" stroke-miterlimit="10" d="M -38.978349 -42.521225 C -35.432719 -24.804325 -35.432719 -24.804325 -10.628966 -21.258596 " transform="matrix(0.998148, 0, 0, -0.99812, 212.199123, 254.636837)"/>
<path fill="none" stroke-width="1.59404" stroke-linecap="butt" stroke-linejoin="miter" stroke="rgb(100%, 100%, 100%)" stroke-opacity="0.5" stroke-miterlimit="10" d="M 99.21223 77.954516 C 85.041058 56.692479 85.041058 56.692479 77.953515 49.605133 " transform="matrix(0.99812, 0, 0, -0.998148, 212.196938, 254.638256)"/>
<path fill="none" stroke-width="1.59404" stroke-linecap="butt" stroke-linejoin="miter" stroke="rgb(100%, 100%, 100%)" stroke-opacity="0.5" stroke-miterlimit="10" d="M 77.953819 70.865347 C 77.953819 21.259219 77.953819 21.259219 63.778529 -67.323432 " transform="matrix(0.998106, 0, 0, -0.998097, 212.197754, 254.640634)"/>
<path fill="none" stroke-width="1.59404" stroke-linecap="butt" stroke-linejoin="miter" stroke="rgb(100%, 100%, 100%)" stroke-opacity="0.5" stroke-miterlimit="10" d="M 63.782134 42.521918 L 56.694687 46.063699 " transform="matrix(0.998133, 0, 0, -0.998129, 212.19629, 254.637693)"/>
<path fill="none" stroke-width="1.59404" stroke-linecap="butt" stroke-linejoin="miter" stroke="rgb(100%, 100%, 100%)" stroke-opacity="0.5" stroke-miterlimit="10" d="M 67.32422 35.434337 L 56.694794 33.661478 " transform="matrix(0.998114, 0, 0, -0.998123, 212.197307, 254.637368)"/>
<path fill="none" stroke-width="1.59404" stroke-linecap="butt" stroke-linejoin="miter" stroke="rgb(100%, 100%, 100%)" stroke-opacity="0.5" stroke-miterlimit="10" d="M 70.866051 31.888544 L 65.551326 28.346763 " transform="matrix(0.998111, 0, 0, -0.998129, 212.197471, 254.63749)"/>
<path fill="none" stroke-width="1.59404" stroke-linecap="butt" stroke-linejoin="miter" stroke="rgb(100%, 100%, 100%)" stroke-opacity="0.5" stroke-miterlimit="10" d="M 63.779787 31.888452 C 46.063964 14.171552 46.063964 14.171552 38.976853 10.629738 " transform="matrix(0.998181, 0, 0, -0.99812, 212.195616, 254.637098)"/>
<path fill="none" stroke-width="1.59404" stroke-linecap="butt" stroke-linejoin="miter" stroke="rgb(100%, 100%, 100%)" stroke-opacity="0.5" stroke-miterlimit="10" d="M 69.096479 26.574615 C 56.694431 7.086252 56.694431 7.086252 49.606988 -0.000781779 " transform="matrix(0.998134, 0, 0, -0.998192, 212.196513, 254.635938)"/>
<path fill="none" stroke-width="1.59404" stroke-linecap="butt" stroke-linejoin="miter" stroke="rgb(100%, 100%, 100%)" stroke-opacity="0.5" stroke-miterlimit="10" d="M 56.694429 -3.545157 C 53.148747 -14.174667 53.148747 -14.174667 44.292369 -17.716533 " transform="matrix(0.998133, 0, 0, -0.998106, 212.19657, 254.63734)"/>
<path fill="none" stroke-width="1.59404" stroke-linecap="butt" stroke-linejoin="miter" stroke="rgb(100%, 100%, 100%)" stroke-opacity="0.5" stroke-miterlimit="10" d="M 60.236825 -21.258231 C 53.14918 -31.891655 53.14918 -31.891655 46.065449 -35.43352 " transform="matrix(0.998106, 0, 0, -0.998106, 212.197593, 254.637507)"/>
<path fill="none" stroke-width="1.59404" stroke-linecap="butt" stroke-linejoin="miter" stroke="rgb(100%, 100%, 100%)" stroke-opacity="0.5" stroke-miterlimit="10" d="M 63.778667 -31.891738 C 51.38018 -42.521163 51.38018 -42.521163 49.607291 -42.521163 " transform="matrix(0.998106, 0, 0, -0.998114, 212.197617, 254.637171)"/>
<path fill="none" stroke-width="1.59404" stroke-linecap="butt" stroke-linejoin="miter" stroke="rgb(100%, 100%, 100%)" stroke-opacity="0.5" stroke-miterlimit="10" d="M 63.782134 -42.521151 L 56.694687 -53.150577 " transform="matrix(0.998133, 0, 0, -0.998114, 212.19629, 254.637182)"/>
<path fill="none" stroke-width="1.59404" stroke-linecap="butt" stroke-linejoin="miter" stroke="rgb(100%, 100%, 100%)" stroke-opacity="0.5" stroke-miterlimit="10" d="M 49.605729 24.805006 C 24.801821 19.490282 24.801821 19.490282 14.172693 21.259248 " transform="matrix(0.998142, 0, 0, -0.998111, 212.197396, 254.637067)"/>
<path fill="none" stroke-width="1.59404" stroke-linecap="butt" stroke-linejoin="miter" stroke="rgb(100%, 100%, 100%)" stroke-opacity="0.5" stroke-miterlimit="10" d="M 40.747445 -3.541511 C 28.346115 0.000270211 28.346115 0.000270211 14.172048 0.000270211 " transform="matrix(0.998192, 0, 0, -0.998129, 212.197327, 254.636988)"/>
<path fill="none" stroke-width="1.59404" stroke-linecap="butt" stroke-linejoin="miter" stroke="rgb(100%, 100%, 100%)" stroke-opacity="0.5" stroke-miterlimit="10" d="M 38.976317 -42.521225 C 35.434601 -24.804325 35.434601 -24.804325 10.630848 -21.258596 " transform="matrix(0.998148, 0, 0, -0.99812, 212.197436, 254.636837)"/>
</svg>
